HIERARCHY
ROOT Hips
{
	OFFSET -3.958830 18.904000 13.208200
	CHANNELS 6 Xposition Yposition Zposition Zrotation Yrotation Xrotation 
	JOINT LHipJoint
	{
		OFFSET 0.000000 0.000000 0.000000
		CHANNELS 3 Zrotation Yrotation Xrotation
		JOINT LeftUpLeg
		{
			OFFSET 1.800000 -1.400000 0.085000
			CHANNELS 3 Zrotation Yrotation Xrotation
			JOINT LeftLeg
			{
				OFFSET 2.215000 -6.000000 0.000000
				CHANNELS 3 Zrotation Yrotation Xrotation
				JOINT LeftFoot
				{
					OFFSET 2.500000 -6.900000 0.000000
					CHANNELS 3 Zrotation Yrotation Xrotation
					JOINT LeftToeBase
					{
						OFFSET 0.200000 -0.500000 1.950000
						CHANNELS 3 Zrotation Yrotation Xrotation
						End Site
						{
							OFFSET 0.000000 0.000000 0.000000
						}
					}
				}
			}
		}
	}
	JOINT RHipJoint
	{
		OFFSET 0.000000 0.000000 0.000000
		CHANNELS 3 Zrotation Yrotation Xrotation
		JOINT RightUpLeg
		{
			OFFSET -1.800000 -1.400000 0.085000
			CHANNELS 3 Zrotation Yrotation Xrotation
			JOINT RightLeg
			{
				OFFSET -2.215000 -6.000000 0.000000
				CHANNELS 3 Zrotation Yrotation Xrotation
				JOINT RightFoot
				{
					OFFSET -2.500000 -6.900000 0.000000
					CHANNELS 3 Zrotation Yrotation Xrotation
					JOINT RightToeBase
					{
						OFFSET -0.200000 -0.500000 1.950000
						CHANNELS 3 Zrotation Yrotation Xrotation
						End Site
						{
							OFFSET 0.000000 0.000000 0.000000
						}
					}
				}
			}
		}
	}
	JOINT LowerBack
	{
		OFFSET 0.000000 0.000000 0.000000
		CHANNELS 3 Zrotation Yrotation Xrotation
		JOINT Spine
		{
			OFFSET -0.087000 1.940000 -0.288900
			CHANNELS 3 Zrotation Yrotation Xrotation
			JOINT Spine1
			{
				OFFSET 0.000000 1.950000 0.060000
				CHANNELS 3 Zrotation Yrotation Xrotation
				JOINT Neck
				{
					OFFSET 0.000000 0.000000 0.000000
					CHANNELS 3 Zrotation Yrotation Xrotation
					JOINT Neck1
					{
						OFFSET 0.000000 1.600000 0.340000
						CHANNELS 3 Zrotation Yrotation Xrotation
						JOINT Head
						{
							OFFSET 0.000000 1.667000 -0.240000
							CHANNELS 3 Zrotation Yrotation Xrotation
							End Site
							{
								OFFSET 0.000000 0.000000 0.000000
							}
						}
					}
				}
				JOINT LeftShoulder
				{
					OFFSET 0.000000 0.000000 0.000000
					CHANNELS 3 Zrotation Yrotation Xrotation
					JOINT LeftArm
					{
						OFFSET 2.700000 1.550000 -0.730000
						CHANNELS 3 Zrotation Yrotation Xrotation
						JOINT LeftForeArm
						{
							OFFSET 5.450000 0.000000 0.000000
							CHANNELS 3 Zrotation Yrotation Xrotation
							JOINT LeftHand
							{
								OFFSET 3.450000 0.000000 0.000000
								CHANNELS 3 Zrotation Yrotation Xrotation
								JOINT LeftHandIndex1
								{
									OFFSET 0.750000 0.000000 0.000000
									CHANNELS 3 Zrotation Yrotation Xrotation
									End Site
									{
										OFFSET 0.000000 0.000000 0.000000
									}
								}
							}
						}
					}
				}
				JOINT RightShoulder
				{
					OFFSET 0.000000 0.000000 0.000000
					CHANNELS 3 Zrotation Yrotation Xrotation
					JOINT RightArm
					{
						OFFSET -2.700000 1.550000 -0.730000
						CHANNELS 3 Zrotation Yrotation Xrotation
						JOINT RightForeArm
						{
							OFFSET -5.450000 0.000000 0.000000
							CHANNELS 3 Zrotation Yrotation Xrotation
							JOINT RightHand
							{
								OFFSET -3.450000 0.000000 0.000000
								CHANNELS 3 Zrotation Yrotation Xrotation
								JOINT RightHandIndex1
								{
									OFFSET -0.750000 0.000000 0.000000
									CHANNELS 3 Zrotation Yrotation Xrotation
									End Site
									{
										OFFSET 0.000000 0.000000 0.000000
									}
								}
							}
						}
					}
				}
			}
		}
	}
}
MOTION
Frames: 4
Frame Time: 0.016667
-0.434410 17.410780 -6.273880 -41.167260 75.672121 -42.697348 -16.481256 13.201006 2.077864 1.954938 0.519315 -2.273084 5.019157 3.570371 16.445401 -0.996781 4.539843 3.099923 0.532500 0.169740 0.309250 16.973258 -10.113368 3.828067 -24.339102 4.494145 -19.458114 21.801636 -5.708691 6.102841 -0.298825 -4.726261 2.551804 0.425780 0.362740 0.252950 -7.494606 5.119542 -8.015969 33.549323 3.353334 19.031691 8.281391 1.758553 19.640980 3.303519 9.535560 -15.468548 22.796983 -18.316439 22.975292 0.924920 -11.465100 -14.854020 -7.005429 -12.441054 12.831386 -27.663269 17.593852 7.672695 -154.491466 -40.744711 105.946849 -3.785730 3.786618 0.603190 0.236780 -0.155830 0.132530 1.815607 12.876609 2.852249 43.517997 36.314911 3.765199 136.444035 69.279241 105.835793 1.622170 -0.637194 -0.392760 0.417480 0.165040 -0.305650 
-0.447620 17.338490 -6.207320 -39.074838 77.430775 -40.974395 -16.573875 13.096679 2.148137 2.025804 0.675978 -0.887423 3.665371 3.949363 15.621545 -0.994710 4.700610 3.093316 0.454480 0.077820 0.234050 16.868022 -10.254156 3.736054 -24.250922 3.664031 -18.181687 16.962844 -4.329756 2.433356 -0.192607 -4.346147 2.727192 0.410110 0.462830 0.210640 -7.664501 5.433058 -7.976615 32.062539 3.257972 18.660910 7.066811 1.597217 20.412201 3.056385 9.650004 -15.594810 23.026848 -18.125433 21.032369 2.411440 -12.182040 -14.096950 -6.372110 -12.899984 12.958824 -26.442509 17.916127 7.856665 -158.362010 -40.489198 113.188501 -3.849744 3.724139 0.580970 0.273280 -0.236430 0.134900 1.811186 13.191286 3.281312 44.096127 36.929399 3.373493 137.447667 70.729074 109.166642 1.560593 -0.512891 -0.465680 0.485010 0.220130 -0.291020 
-0.418600 17.259760 -6.152530 -38.993382 79.496949 -40.185685 -16.650692 13.019570 2.181842 1.673558 0.720751 -0.489990 3.190576 3.971857 14.709197 -1.000438 4.703743 3.111651 0.425290 0.041040 0.208770 16.803866 -10.138563 3.804942 -24.988486 3.265379 -16.962905 13.820961 -3.326198 -1.369007 -0.183677 -4.271260 2.784031 0.402300 0.492100 0.192850 -7.669612 5.396005 -7.930021 29.842904 3.610273 16.475753 7.488226 1.499141 19.971467 2.724312 9.679440 -15.646023 23.032861 -19.100255 20.768706 2.313830 -13.367130 -13.639640 -5.159552 -12.358509 12.307222 -27.272293 15.834960 8.567946 -158.629137 -41.231935 116.140896 -3.845046 3.698747 0.570070 0.286230 -0.267370 0.133200 1.145093 12.253681 3.917013 45.383159 35.581130 3.879969 139.979072 70.965439 112.995654 1.501246 -0.602256 -0.489810 0.510500 0.239440 -0.285950 
-0.383510 17.201890 -6.099060 -41.760067 81.233628 -41.354670 -16.671277 13.049711 2.177741 1.467903 0.603924 -1.263896 3.127973 3.840970 13.976447 -1.048140 4.648795 3.146822 0.396250 0.003930 0.165580 16.804005 -9.887285 3.903633 -25.314665 3.189808 -16.354415 12.237346 -2.663662 -4.246442 -0.183028 -4.286141 2.811913 0.401990 0.543690 0.172460 -7.524438 5.199562 -7.847655 27.382236 3.751213 13.625439 8.303631 1.199896 18.526961 2.527955 9.766317 -15.176183 22.989152 -20.297219 21.245121 2.682680 -15.018480 -13.279520 -4.400922 -10.818503 10.972402 -29.437905 12.106695 9.845508 -156.805959 -42.646162 116.747249 -3.849312 3.669182 0.561720 0.304130 -0.309960 0.138930 0.684149 10.131450 4.123562 47.417517 34.111902 5.495072 138.148787 70.665215 110.915178 1.515620 -0.548570 -0.523320 0.555090 0.270440 -0.273120 
